<svg viewBox="0 0 24 24" fill="none" xmlns="http://www.w3.org/2000/svg">
  <path
    d="M18.375 3.21875C18.6752 2.97861 19.0871 2.93211 19.4336 3.09863C19.7799 3.26521 20 3.61571 20 4V20C20 20.3843 19.7799 20.7348 19.4336 20.9014C19.0871 21.0679 18.6752 21.0214 18.375 20.7812L8.375 12.7813C8.13778 12.5915 8 12.3038 8 12C8 11.6962 8.13778 11.4085 8.375 11.2188L18.375 3.21875ZM10.6016 12L18 17.918V6.08106L10.6016 12Z"
  />
  <path
    d="M4 19V5C4 4.44772 4.44772 4 5 4C5.55228 4 6 4.44772 6 5V19C6 19.5523 5.55228 20 5 20C4.44772 20 4 19.5523 4 19Z"
  />
</svg>