<svg viewBox="0 0 24 24" fill="none" xmlns="http://www.w3.org/2000/svg">
  <path
    d="M4.56641 3.09863C4.91287 2.93211 5.32483 2.97861 5.625 3.21875L15.625 11.2188C15.8622 11.4085 16 11.6962 16 12C16 12.3038 15.8622 12.5915 15.625 12.7813L5.625 20.7812C5.32483 21.0214 4.91287 21.0679 4.56641 20.9014C4.22012 20.7348 4 20.3843 4 20V4C4 3.61571 4.22012 3.26521 4.56641 3.09863ZM6 17.918L13.3984 12L6 6.08106V17.918Z"
  />
  <path
    d="M18 19V5C18 4.44772 18.4477 4 19 4C19.5523 4 20 4.44772 20 5V19C20 19.5523 19.5523 20 19 20C18.4477 20 18 19.5523 18 19Z"
  />
</svg>