<svg viewBox="0 0 24 24" fill="none" xmlns="http://www.w3.org/2000/svg">
  <path
    d="M21.452 8.50012C21.452 7.90903 21.3355 7.32354 21.1093 6.77747C20.883 6.23136 20.5508 5.7354 20.1327 5.3175C19.7149 4.89956 19.2187 4.56718 18.6727 4.34094C18.1266 4.11467 17.5412 3.99818 16.9501 3.99817C16.3589 3.99817 15.7735 4.11466 15.2274 4.34094C14.6815 4.56717 14.1853 4.89859 13.7675 5.31653L12.7069 6.37708C12.3164 6.76752 11.6833 6.76757 11.2928 6.37708L10.2333 5.3175C9.38912 4.47335 8.2435 3.99915 7.04968 3.99915C5.85598 3.99923 4.71115 4.47342 3.86707 5.3175C3.02305 6.16164 2.54871 7.30641 2.54871 8.50012C2.54874 9.69385 3.023 10.8386 3.86707 11.6827L11.9999 19.8156L20.1327 11.6827L20.286 11.5226C20.6326 11.1402 20.9113 10.7006 21.1093 10.2228C21.3355 9.67671 21.452 9.0912 21.452 8.50012ZM23.452 8.50012C23.452 9.35393 23.2837 10.1996 22.9569 10.9884C22.6301 11.7771 22.1505 12.4933 21.5468 13.0968L12.7069 21.9366C12.3164 22.3272 11.6834 22.3272 11.2928 21.9366L2.453 13.0968C1.23386 11.8776 0.54874 10.2243 0.548706 8.50012C0.548706 6.77587 1.23377 5.12169 2.453 3.90247C3.67213 2.68348 5.32567 1.99923 7.04968 1.99915C8.77389 1.99915 10.4281 2.6833 11.6473 3.90247L11.9999 4.255L12.3524 3.90247C12.956 3.29864 13.6731 2.82011 14.4618 2.49329C15.2506 2.16644 16.0962 1.99817 16.9501 1.99817C17.8039 1.99818 18.6496 2.16645 19.4384 2.49329C20.2269 2.82003 20.9433 3.29887 21.5468 3.90247C22.1507 4.50609 22.6301 5.22303 22.9569 6.01184C23.2837 6.80064 23.452 7.64629 23.452 8.50012Z"
  />
</svg>
