<svg viewBox="0 0 24 24" fill="none" xmlns="http://www.w3.org/2000/svg">
  <path
    d="M21.702 8.50013C21.702 7.87616 21.5786 7.25821 21.3397 6.68177C21.1009 6.10536 20.7507 5.58184 20.3095 5.14075C19.8684 4.69956 19.3448 4.3483 18.7684 4.1095C18.192 3.87066 17.574 3.74818 16.9501 3.74817C16.3262 3.74817 15.7081 3.87069 15.1317 4.1095C14.5554 4.34829 14.0317 4.69862 13.5907 5.13977L12.5302 6.20032C12.2373 6.49313 11.7625 6.49319 11.4696 6.20032L10.41 5.14075C9.519 4.24971 8.30981 3.74915 7.04969 3.74915C5.78968 3.74923 4.58128 4.24979 3.69031 5.14075C2.79941 6.03177 2.29871 7.24011 2.29871 8.50013C2.29874 9.76016 2.79936 10.9685 3.69031 11.8595L11.9999 20.1691L20.3095 11.8595C20.7507 11.4185 21.1009 10.8948 21.3397 10.3185C21.5786 9.74208 21.702 9.12405 21.702 8.50013ZM23.202 8.50013C23.202 9.32109 23.0397 10.1343 22.7255 10.8927C22.4112 11.651 21.9505 12.3397 21.37 12.92L12.5302 21.7599C12.2373 22.0528 11.7625 22.0528 11.4696 21.7599L2.62976 12.92C1.45751 11.7477 0.798744 10.158 0.79871 8.50013C0.79871 6.84218 1.45742 5.25157 2.62976 4.07923C3.80201 2.90712 5.39198 2.24923 7.04969 2.24915C8.70759 2.24915 10.2982 2.90694 11.4706 4.07923L11.9999 4.60852L12.5302 4.07923C13.1104 3.49883 13.7993 3.03793 14.5575 2.72376C15.3159 2.40951 16.1291 2.24817 16.9501 2.24817C17.7711 2.24818 18.5842 2.40949 19.3427 2.72376C20.1007 3.03785 20.7888 3.49903 21.369 4.07923C21.9497 4.6596 22.4112 5.34912 22.7255 6.10755C23.0397 6.86602 23.202 7.67912 23.202 8.50013Z"
  />
</svg>