<svg viewBox="0 0 24 24" fill="none" xmlns="http://www.w3.org/2000/svg">
  <path
    d="M20.25 10C20.25 7.81196 19.3812 5.71319 17.834 4.16602C16.2868 2.61884 14.188 1.75 12 1.75C9.81196 1.75 7.71319 2.61884 6.16602 4.16602C4.61884 5.71319 3.75 7.81196 3.75 10C3.75 13.1985 5.82476 16.2659 8.04492 18.6094C9.13941 19.7646 10.2362 20.7098 11.0605 21.3662C11.4425 21.6703 11.7656 21.9107 12 22.0811C12.2344 21.9107 12.5575 21.6703 12.9395 21.3662C13.7638 20.7098 14.8606 19.7646 15.9551 18.6094C18.1752 16.2659 20.25 13.1985 20.25 10ZM21.75 10C21.75 13.8013 19.3247 17.2341 17.0449 19.6406C15.8897 20.8601 14.7361 21.8528 13.873 22.54C13.4411 22.884 13.0806 23.1532 12.8262 23.3369C12.6989 23.4288 12.5981 23.4995 12.5283 23.5479C12.4936 23.5719 12.4661 23.5897 12.4473 23.6025C12.4378 23.6089 12.43 23.6147 12.4248 23.6182C12.4224 23.6198 12.4204 23.6211 12.4189 23.6221L12.417 23.623L12.416 23.624C12.1955 23.771 11.9167 23.7891 11.6816 23.6787L11.584 23.624L11.583 23.623L11.5811 23.6221C11.5796 23.6211 11.5776 23.6198 11.5752 23.6182C11.57 23.6147 11.5622 23.6089 11.5527 23.6025C11.5339 23.5897 11.5064 23.5719 11.4717 23.5479C11.4019 23.4995 11.3011 23.4288 11.1738 23.3369C10.9194 23.1532 10.5589 22.884 10.127 22.54C9.2639 21.8528 8.11033 20.8601 6.95508 19.6406C4.67533 17.2341 2.25 13.8013 2.25 10C2.25 7.41414 3.27699 4.93395 5.10547 3.10547C6.93395 1.27699 9.41414 0.25 12 0.25C14.5859 0.25 17.0661 1.27699 18.8945 3.10547C20.723 4.93395 21.75 7.41414 21.75 10Z"
  />
  <path
    d="M14.25 10C14.25 8.75736 13.2426 7.75 12 7.75C10.7574 7.75 9.75 8.75736 9.75 10C9.75 11.2426 10.7574 12.25 12 12.25C13.2426 12.25 14.25 11.2426 14.25 10ZM15.75 10C15.75 12.0711 14.0711 13.75 12 13.75C9.92893 13.75 8.25 12.0711 8.25 10C8.25 7.92893 9.92893 6.25 12 6.25C14.0711 6.25 15.75 7.92893 15.75 10Z"
  />
</svg>