<svg viewBox="0 0 24 24" fill="none" xmlns="http://www.w3.org/2000/svg">
  <path
    d="M12.7806 22.8945C12.4991 23.0353 12.1676 23.0353 11.8861 22.8945L12.3333 22L12.7806 22.8945ZM19.3333 5.69336L12.3333 3.06836L5.33333 5.69336V12C5.33333 14.5534 7.05143 16.7994 8.99154 18.4971C9.94065 19.3275 10.8951 19.9845 11.6136 20.4336C11.8962 20.6102 12.1419 20.7518 12.3333 20.8604C12.5247 20.7518 12.7704 20.6102 13.0531 20.4336C13.7716 19.9845 14.726 19.3275 15.6751 18.4971C17.6152 16.7994 19.3333 14.5534 19.3333 12V5.69336ZM21.3333 12C21.3333 15.4464 19.0513 18.2006 16.9915 20.0029C15.9409 20.9222 14.8949 21.6406 14.1136 22.1289C13.7218 22.3738 13.3937 22.5628 13.1615 22.6914C13.0453 22.7557 12.9528 22.8049 12.888 22.8389C12.8556 22.8559 12.8299 22.8697 12.8118 22.8789L12.7845 22.8926L12.7816 22.8936V22.8945C12.7813 22.8947 12.7805 22.8944 12.3333 22C11.8861 22.8944 11.8854 22.8947 11.8851 22.8945V22.8936L11.8822 22.8926L11.8548 22.8789C11.8367 22.8697 11.811 22.8559 11.7786 22.8389C11.7139 22.8049 11.6214 22.7557 11.5052 22.6914C11.273 22.5628 10.9448 22.3738 10.5531 22.1289C9.77173 21.6406 8.72574 20.9222 7.67513 20.0029C5.61538 18.2006 3.33333 15.4464 3.33333 12V5C3.33333 4.58327 3.59165 4.20992 3.98177 4.06348L11.9818 1.06348L12.0677 1.03613C12.2703 0.980286 12.4867 0.98914 12.6849 1.06348L20.6849 4.06348C21.075 4.20992 21.3333 4.58327 21.3333 5V12Z"
  />
</svg>