<svg viewBox=" 0 0 24 24" fill=" none" xmlns=" http:// www.w3.org/ 2000/ svg">
  <path
    d=" M12 1.25C12.2855 1.25 12.5465 1.41199 12.6729 1.66797L15.5879 7.57422L22.1084 8.52832C22.3908 8.5696 22.6258 8.76756 22.7139 9.03906C22.8017 9.31044 22.7278 9.60859 22.5234 9.80762L17.8057 14.4023L18.9189 20.8936C18.9671 21.1748 18.8519 21.4592 18.6211 21.627C18.3901 21.7947 18.0837 21.8165 17.8311 21.6836L12 18.6162L6.16894 21.6836C5.91626 21.8165 5.60988 21.7947 5.3789 21.627C5.14808 21.4592 5.03293 21.1748 5.08105 20.8936L6.19336 14.4023L1.47656 9.80762C1.27222 9.60859 1.19834 9.31044 1.28613 9.03906C1.37416 8.76756 1.60918 8.5696 1.8916 8.52832L8.41113 7.57422L11.3271 1.66797L11.3809 1.57617C11.5193 1.37381 11.7503 1.25 12 1.25ZM9.58301 8.5918C9.47387 8.8129 9.26252 8.96626 9.01855 9.00195L3.61133 9.79199L7.52344 13.6025C7.7003 13.7748 7.78093 14.0233 7.73926 14.2666L6.81543 19.6484L11.6514 17.1064L11.7344 17.0684C11.9337 16.9929 12.1574 17.006 12.3486 17.1064L17.1836 19.6484L16.2607 14.2666C16.2191 14.0233 16.2997 13.7748 16.4766 13.6025L20.3877 9.79199L14.9814 9.00195C14.7375 8.96626 14.5261 8.8129 14.417 8.5918L12 3.69434L9.58301 8.5918Z"
  />
</svg>