<svg viewBox="0 0 25 24" fill="none" xmlns="http://www.w3.org/2000/svg">
  <g clip-path="url(#clip0_5_17)">
    <path
      d="M16.6667 12C16.6667 9.79086 14.8758 8 12.6667 8C10.4575 8 8.66667 9.79086 8.66667 12C8.66667 14.2091 10.4575 16 12.6667 16C14.8758 16 16.6667 14.2091 16.6667 12ZM18.6667 12C18.6667 15.3137 15.9804 18 12.6667 18C9.35296 18 6.66667 15.3137 6.66667 12C6.66667 8.68629 9.35296 6 12.6667 6C15.9804 6 18.6667 8.68629 18.6667 12Z"
    />
    <path
      d="M11.6667 3V1C11.6667 0.447715 12.1144 0 12.6667 0C13.219 0 13.6667 0.447715 13.6667 1V3C13.6667 3.55228 13.219 4 12.6667 4C12.1144 4 11.6667 3.55228 11.6667 3Z"
    />
    <path
      d="M11.6667 23V21C11.6667 20.4477 12.1144 20 12.6667 20C13.219 20 13.6667 20.4477 13.6667 21V23C13.6667 23.5523 13.219 24 12.6667 24C12.1144 24 11.6667 23.5523 11.6667 23Z"
    />
    <path
      d="M4.17964 3.51297C4.57016 3.12244 5.20317 3.12244 5.5937 3.51297L7.01362 4.93289C7.40415 5.32341 7.40415 5.95643 7.01362 6.34695C6.6231 6.73748 5.99008 6.73748 5.59956 6.34695L4.17964 4.92703C3.78911 4.53651 3.78911 3.90349 4.17964 3.51297Z"
    />
    <path
      d="M18.3196 17.653C18.7102 17.2624 19.3432 17.2624 19.7337 17.653L21.1536 19.0729C21.5441 19.4634 21.5441 20.0964 21.1536 20.487C20.7631 20.8775 20.1301 20.8775 19.7396 20.487L18.3196 19.067C17.9291 18.6765 17.9291 18.0435 18.3196 17.653Z"
    />
    <path
      d="M3.66667 11C4.21895 11 4.66667 11.4477 4.66667 12C4.66667 12.5523 4.21895 13 3.66667 13H1.66667C1.11438 13 0.666668 12.5523 0.666668 12C0.666668 11.4477 1.11438 11 1.66667 11H3.66667Z"
    />
    <path
      d="M23.6667 11C24.219 11 24.6667 11.4477 24.6667 12C24.6667 12.5523 24.219 13 23.6667 13H21.6667C21.1144 13 20.6667 12.5523 20.6667 12C20.6667 11.4477 21.1144 11 21.6667 11H23.6667Z"
    />
    <path
      d="M5.59956 17.653C5.99007 17.2625 6.62309 17.2625 7.01362 17.653C7.40415 18.0435 7.40415 18.6765 7.01362 19.067L5.5937 20.487C5.20317 20.8775 4.57016 20.8775 4.17964 20.487C3.78915 20.0964 3.78913 19.4634 4.17964 19.0729L5.59956 17.653Z"
    />
    <path
      d="M19.7396 3.51297C20.1301 3.12246 20.7631 3.12248 21.1536 3.51297C21.5441 3.90349 21.5441 4.53651 21.1536 4.92703L19.7337 6.34695C19.3432 6.73748 18.7102 6.73748 18.3196 6.34695C17.9292 5.95643 17.9291 5.3234 18.3196 4.93289L19.7396 3.51297Z"
    />
  </g>
</svg>