<svg viewBox="0 0 24 24" fill="none" xmlns="http://www.w3.org/2000/svg">
  <path
    d="M14.7418 1.10964C16.1417 0.854642 17.5862 1.0328 18.8825 1.61941C19.1814 1.7548 19.3949 2.02801 19.4538 2.35085C19.5126 2.67378 19.4095 3.00546 19.1774 3.23757L15.4166 6.99733L15.4137 6.99929L16.9997 8.58523L20.7633 4.82253L20.8541 4.74148C21.0774 4.56706 21.3666 4.49474 21.6491 4.54616C21.972 4.605 22.2461 4.81841 22.3815 5.11745C22.9681 6.41374 23.1453 7.85828 22.8903 9.25808C22.6352 10.6579 21.9598 11.9472 20.9538 12.9534C19.9476 13.9595 18.6583 14.6348 17.2584 14.8899C16.0909 15.1026 14.8928 15.0134 13.775 14.638L7.32681 21.0872C6.74146 21.6724 5.94751 22.0012 5.11977 22.0012C4.29203 22.0012 3.49805 21.6725 2.91274 21.0872C2.32744 20.5019 1.99872 19.7079 1.99868 18.8801C1.99868 18.0524 2.3275 17.2585 2.91274 16.6731L9.36098 10.2239C8.98586 9.1065 8.89736 7.90857 9.11001 6.74148C9.3651 5.34165 10.0404 4.0523 11.0465 3.04616C12.0527 2.04009 13.342 1.36469 14.7418 1.10964ZM3.99868 18.8801C3.99872 19.1775 4.11658 19.4629 4.32681 19.6731C4.53704 19.8834 4.82246 20.0012 5.11977 20.0012C5.41708 20.0012 5.70247 19.8833 5.91274 19.6731L12.8229 12.763L12.9401 12.6624C13.2277 12.4522 13.6104 12.4089 13.942 12.5589C14.868 12.9779 15.9001 13.1053 16.9 12.9231C17.8998 12.7409 18.8201 12.2578 19.5387 11.5393C20.2574 10.8206 20.7403 9.8996 20.9225 8.89968C21.0105 8.4165 21.0248 7.92613 20.9704 7.44362L18.4 10.0139C18.0262 10.3804 17.5232 10.5862 16.9997 10.5862C16.4763 10.5861 15.974 10.3803 15.6002 10.0139L15.5924 10.0071L13.9928 8.40749L13.986 8.39968C13.6197 8.0259 13.4138 7.52363 13.4137 7.00026C13.4137 6.47676 13.6195 5.97373 13.986 5.59987L16.5563 3.02858C16.0738 2.9742 15.5834 2.9894 15.1002 3.07741C14.1003 3.2596 13.1793 3.74251 12.4606 4.4612C11.7421 5.17978 11.26 6.1002 11.0778 7.09987C10.8956 8.0998 11.022 9.13189 11.4411 10.0579C11.6126 10.4371 11.5312 10.8827 11.237 11.177L4.32681 18.0872C4.11663 18.2974 3.99868 18.5828 3.99868 18.8801Z"
  />
</svg>