<svg viewBox="0 0 24 24" fill="none" xmlns="http://www.w3.org/2000/svg">
  <path
    d="M3 20V4C3 3.20435 3.3163 2.44152 3.87891 1.87891C4.44152 1.3163 5.20435 1 6 1H13L13.0986 1.00488C13.3276 1.02757 13.5429 1.12883 13.707 1.29297L20.707 8.29297C20.8946 8.48051 21 8.73478 21 9V20C21 20.7957 20.6837 21.5585 20.1211 22.1211C19.5585 22.6837 18.7957 23 18 23H6C5.20435 23 4.44152 22.6837 3.87891 22.1211C3.3163 21.5585 3 20.7956 3 20ZM5 20C5 20.2652 5.10543 20.5195 5.29297 20.707C5.48051 20.8946 5.73478 21 6 21H18C18.2652 21 18.5195 20.8946 18.707 20.707C18.8946 20.5195 19 20.2652 19 20V9.41406L12.5859 3H6C5.73478 3 5.48051 3.10543 5.29297 3.29297C5.10543 3.48051 5 3.73478 5 4V20Z"
  />
  <path
    d="M12 2C12 1.44772 12.4477 1 13 1C13.5523 1 14 1.44772 14 2V8H20C20.5523 8 21 8.44772 21 9C21 9.55228 20.5523 10 20 10H13C12.4477 10 12 9.55228 12 9V2Z"
  />
</svg>
